<svg xmlns="http://www.w3.org/2000/svg" width="1120" height="620" viewBox="0 0 1120 620" role="img" aria-label="Homelab Agent Gateway architecture">
  <defs>
    <marker id="arrow" viewBox="0 0 10 10" refX="9" refY="5" markerWidth="8" markerHeight="8" orient="auto-start-reverse">
      <path d="M 0 0 L 10 5 L 0 10 z" fill="#4a5568"/>
    </marker>
  </defs>
  <rect width="1120" height="620" fill="#f6f7f9"/>
  <rect x="350" y="70" width="420" height="480" rx="14" fill="#ffffff" stroke="#cbd5e1"/>
  <text x="430" y="112" font-family="Arial, sans-serif" font-size="24" font-weight="700" fill="#17202a">Homelab Agent Gateway</text>
  <g fill="#fbfcfd" stroke="#d7dde6">
    <rect x="400" y="150" width="140" height="58" rx="8"/>
    <rect x="580" y="150" width="140" height="58" rx="8"/>
    <rect x="400" y="245" width="140" height="58" rx="8"/>
    <rect x="580" y="245" width="140" height="58" rx="8"/>
    <rect x="400" y="340" width="140" height="58" rx="8"/>
    <rect x="580" y="340" width="140" height="58" rx="8"/>
    <rect x="490" y="435" width="140" height="58" rx="8"/>
  </g>
  <g font-family="Arial, sans-serif" font-size="15" fill="#17202a" text-anchor="middle">
    <text x="470" y="184">Router</text>
    <text x="650" y="184">Config UI</text>
    <text x="470" y="279">Vision fusion</text>
    <text x="650" y="279">Tool executor</text>
    <text x="470" y="374">Fallback policy</text>
    <text x="650" y="374">Request logs</text>
    <text x="560" y="469">Guardrails</text>
  </g>
  <g fill="#ffffff" stroke="#cbd5e1">
    <rect x="70" y="245" width="180" height="80" rx="10"/>
    <rect x="880" y="105" width="170" height="72" rx="10"/>
    <rect x="880" y="230" width="170" height="72" rx="10"/>
    <rect x="880" y="355" width="170" height="72" rx="10"/>
    <rect x="880" y="480" width="170" height="72" rx="10"/>
  </g>
  <g font-family="Arial, sans-serif" font-size="16" fill="#17202a" text-anchor="middle">
    <text x="160" y="278">OpenAI-compatible</text>
    <text x="160" y="302">clients</text>
    <text x="965" y="148">Text LLM</text>
    <text x="965" y="273">Vision LLM</text>
    <text x="965" y="398">Web tools</text>
    <text x="965" y="523">Commercial fallback</text>
  </g>
  <g stroke="#4a5568" stroke-width="2" fill="none" marker-end="url(#arrow)">
    <path d="M250 285 L350 285"/>
    <path d="M770 178 L880 142"/>
    <path d="M770 272 L880 266"/>
    <path d="M770 368 L880 391"/>
    <path d="M770 470 L880 516"/>
  </g>
</svg>
