<svg xmlns="http://www.w3.org/2000/svg" width="1120" height="700" viewBox="0 0 1120 700" role="img" aria-label="Homelab Agent Gateway configuration UI mock screenshot">
  <rect width="1120" height="700" fill="#f6f7f9"/>
  <rect x="80" y="48" width="960" height="604" rx="10" fill="#ffffff" stroke="#d7dde6"/>
  <text x="116" y="98" font-family="Arial, sans-serif" font-size="30" font-weight="700" fill="#17202a">Homelab Agent Gateway</text>
  <g font-family="Arial, sans-serif" font-size="14" fill="#4a5568">
    <text x="116" y="146">Public model</text>
    <text x="554" y="146">Text model</text>
    <text x="116" y="232">Vision model</text>
    <text x="554" y="232">Commercial fallback</text>
  </g>
  <g fill="#fbfcfd" stroke="#cbd5e1">
    <rect x="116" y="158" width="390" height="44" rx="6"/>
    <rect x="554" y="158" width="390" height="44" rx="6"/>
    <rect x="116" y="244" width="390" height="44" rx="6"/>
    <rect x="554" y="244" width="390" height="44" rx="6"/>
  </g>
  <g font-family="Arial, sans-serif" font-size="16" fill="#17202a">
    <text x="132" y="185">homelab-agent</text>
    <text x="570" y="185">local-text</text>
    <text x="132" y="271">local-vision</text>
    <text x="570" y="271">error_or_empty</text>
  </g>
  <text x="116" y="334" font-family="Arial, sans-serif" font-size="18" font-weight="700" fill="#17202a">Capabilities</text>
  <g font-family="Arial, sans-serif" font-size="15" fill="#17202a">
    <rect x="116" y="354" width="198" height="44" rx="6" fill="#fbfcfd" stroke="#d7dde6"/>
    <rect x="334" y="354" width="198" height="44" rx="6" fill="#fbfcfd" stroke="#d7dde6"/>
    <rect x="552" y="354" width="198" height="44" rx="6" fill="#fbfcfd" stroke="#d7dde6"/>
    <rect x="770" y="354" width="198" height="44" rx="6" fill="#fbfcfd" stroke="#d7dde6"/>
    <text x="150" y="381">Vision fusion</text>
    <text x="368" y="381">Web search</text>
    <text x="586" y="381">URL fetch</text>
    <text x="804" y="381">Fallback</text>
    <circle cx="134" cy="376" r="8" fill="#1f6feb"/>
    <circle cx="352" cy="376" r="8" fill="#1f6feb"/>
    <circle cx="570" cy="376" r="8" fill="#1f6feb"/>
    <circle cx="788" cy="376" r="8" fill="#d7dde6"/>
  </g>
  <text x="116" y="450" font-family="Arial, sans-serif" font-size="18" font-weight="700" fill="#17202a">Model routes</text>
  <rect x="116" y="470" width="852" height="92" rx="6" fill="#111827"/>
  <text x="138" y="505" font-family="Menlo, monospace" font-size="15" fill="#e5e7eb">{ "local-text": "http://text-llm:8080/v1",</text>
  <text x="138" y="532" font-family="Menlo, monospace" font-size="15" fill="#e5e7eb">  "local-vision": "http://vision-llm:8080/v1" }</text>
  <rect x="116" y="592" width="118" height="42" rx="6" fill="#1f6feb"/>
  <rect x="250" y="592" width="128" height="42" rx="6" fill="#edf2f7" stroke="#cbd5e1"/>
  <text x="151" y="619" font-family="Arial, sans-serif" font-size="15" fill="#ffffff">Save</text>
  <text x="284" y="619" font-family="Arial, sans-serif" font-size="15" fill="#17202a">Logs</text>
</svg>
